<svg xmlns="http://www.w3.org/2000/svg" viewBox="0 0 95.13 16.55"><defs><style>.a{fill:#fff;}</style></defs><title>Middel 6logo</title><path class="a" d="M0,8.62C0,4,3.52.7,8.25.7a7.82,7.82,0,0,1,6.1,2.58L12.5,5A5.42,5.42,0,0,0,8.38,3.21a5.26,5.26,0,0,0-5.5,5.41A5.26,5.26,0,0,0,8.38,14a5.37,5.37,0,0,0,4.12-1.83L14.35,14a7.84,7.84,0,0,1-6.12,2.58C3.52,16.55,0,13.22,0,8.62Z"/><path class="a" d="M36.48,9.59v6.74H33.73V10c0-2.1-1-3.11-2.64-3.11S28,8,28,10.36v6H25.28V10c0-2.1-1-3.11-2.64-3.11-1.83,0-3.06,1.19-3.06,3.52v6H16.83V4.58h2.62V6.07A4.88,4.88,0,0,1,23.3,4.44a4.39,4.39,0,0,1,4,2,5.49,5.49,0,0,1,4.4-2C34.5,4.44,36.48,6.05,36.48,9.59Z"/><path class="a" d="M51.61,0V16.33H49V14.81a4.84,4.84,0,0,1-3.89,1.67,5.72,5.72,0,0,1-5.94-6,5.7,5.7,0,0,1,5.94-6A4.79,4.79,0,0,1,48.86,6V0Zm-2.7,10.45a3.5,3.5,0,1,0-7,0,3.5,3.5,0,1,0,7,0Z"/><path class="a" d="M71.06,9.73H67.17v3.85H64.81V9.73H60.92V7.52h3.89V3.67h2.36V7.52h3.89Z"/><path class="a" d="M90.6,12.76H82.9l-1.52,3.57H78.43L85.36.92h2.82l6.95,15.41h-3Zm-.95-2.24-2.9-6.74-2.89,6.74Z"/></svg>