<svg id="Laag_1" data-name="Laag 1" xmlns="http://www.w3.org/2000/svg" viewBox="0 0 53.16 61.17"><defs><style>.cls-1{fill:#0be900;}</style></defs><title>bugg</title><path class="cls-1" d="M57.59,43.08h-6l-.1,0-.41-.17L51,42.83l-.57-.57-.06-.09-.16-.4,0-.11v-8l0-.11.16-.4.07-.09.56-.57.09-.06.41-.16.1,0h4a.59.59,0,0,0,.59-.58v-8a.59.59,0,0,0-.59-.58.58.58,0,0,0-.58.58v6l0,.11-.17.4-.06.09-.57.57-.09.06-.4.17-.11,0H50.67l-.38-.13-.58-.39-.25-.32a8.8,8.8,0,0,0-2.91-3.56l-.19-.22L46.11,26,46,25.74A14.63,14.63,0,0,0,33.41,13.21l-.09,0L33,13l-.08-.06-.49-.57,0-.08-.15-.38V9.66a.59.59,0,0,0-.59-.58.58.58,0,0,0-.58.58V11.8l0,.1-.14.38-.05.08-.5.57-.07.06-.36.19-.1,0A14.64,14.64,0,0,0,17.16,25.8l-.1.27-.27.43-.2.2a8.8,8.8,0,0,0-2.9,3.6l-.27.3-.6.38-.39.1H9.59l-.1,0-.41-.17L9,30.83l-.56-.57-.07-.09-.16-.4,0-.11v-6a.59.59,0,0,0-.59-.58.58.58,0,0,0-.58.58v8a.58.58,0,0,0,.58.58h4l.11,0,.4.16.09.06.57.57.06.09.17.4,0,.11v8l0,.11-.17.4-.06.09-.57.57-.09.06-.4.17-.11,0h-6a.58.58,0,0,0,0,1.16h6l.11,0,.4.17.09.06.57.57.06.09.17.4,0,.11v6c0,.62,0,1.25.09,1.86v.11l-.14.44-.06.1-.57.63-.09.07-.42.18-.12,0H7.59a.58.58,0,0,0-.58.58v8a.58.58,0,0,0,.58.58.59.59,0,0,0,.59-.58v-6l0-.11.16-.4.06-.09L9,56.49l.09-.06.4-.17.11,0,3,0,.42.15.6.46.25.37a18.51,18.51,0,0,0,17.72,13,18.32,18.32,0,0,0,5.58-.87A18.66,18.66,0,0,0,49.36,57.16l.27-.35.62-.44.42-.13h2.92l.11,0,.4.17.1.06.56.57.06.09.17.4,0,.11v6a.58.58,0,0,0,.58.58.59.59,0,0,0,.59-.58v-8a.59.59,0,0,0-.59-.58h-4.1l-.11,0L51,54.87l-.1-.07-.56-.63-.06-.1-.14-.43,0-.12a16.56,16.56,0,0,0,.1-1.86v-6l0-.11.16-.4.06-.09.57-.57.09-.06.41-.17.1,0h6a.58.58,0,1,0,0-1.16ZM18.92,23.29a13.4,13.4,0,0,1,25.34,0l0,.14-.1.54,0,.12-.59.75-.11.09-.49.21-.14,0h-.16a9.26,9.26,0,0,0-1-.07h-20a10,10,0,0,0-1.15.08l-.14,0-.5-.2-.11-.08-.63-.75L19,24l-.1-.54ZM49,51.66a17.42,17.42,0,1,1-34.83,0v-18a7.47,7.47,0,0,1,3.75-6.44,8,8,0,0,1,1.82-.74,7.45,7.45,0,0,1,.77-.15l.17,0c.3,0,.6-.05.9-.06h20a7.71,7.71,0,0,1,.93.07l.12,0a7.6,7.6,0,0,1,.86.17,7.09,7.09,0,0,1,1.6.65l.19.09A7.45,7.45,0,0,1,49,33.66Z" transform="translate(-5.01 -9.08)"/></svg>