<svg id="Laag_1" data-name="Laag 1" xmlns="http://www.w3.org/2000/svg" viewBox="0 0 53.16 61.17"><defs><style>.cls-1{fill:#fff;}</style></defs><title>bugg</title><path class="cls-1" d="M32.19,72.5a18.51,18.51,0,0,1-17.72-13l-.25-.37-.6-.46-.41-.15-3,0-.11,0-.4.16-.1.06L9,59.31,9,59.4l-.17.4,0,.11v6a.59.59,0,0,1-1.17,0v-8a.58.58,0,0,1,.59-.58h4.1l.11,0,.42-.19.1-.07.56-.63.06-.1.14-.43,0-.12a16.43,16.43,0,0,1-.1-1.86v-6l0-.11-.16-.4-.07-.09-.56-.57-.09-.06-.41-.16-.1,0h-6a.58.58,0,1,1,0-1.16h6l.1,0,.41-.17.09-.06.56-.57.07-.09.16-.4,0-.11v-8l0-.11-.16-.4-.07-.09-.56-.57-.09-.06-.41-.16-.1,0h-4a.59.59,0,0,1-.59-.59v-8a.59.59,0,0,1,1.17,0v6l0,.11.17.4.06.09.56.57.1.06.4.17.11,0H13l.39-.1.59-.38.27-.3A8.78,8.78,0,0,1,17.2,29l.19-.21.27-.43.1-.27A14.65,14.65,0,0,1,30.38,15.46l.09,0,.36-.19.08-.06.49-.56.05-.09.14-.38,0-.1V11.91a.59.59,0,0,1,1.17,0v2.14l0,.1.14.38.05.09.5.56.08.06.35.19.1,0A14.62,14.62,0,0,1,46.62,28l.09.27.25.44.19.22a8.64,8.64,0,0,1,2.91,3.56l.25.32.58.39.38.13H54.2l.1,0,.4-.17.1-.06.56-.57.07-.09.16-.4,0-.11v-6a.59.59,0,0,1,.59-.58.58.58,0,0,1,.58.58v8a.59.59,0,0,1-.58.59h-4l-.11,0-.4.16-.09.06-.57.57L51,35.4l-.17.4,0,.11v8l0,.11.17.4.06.09.56.57.1.06.4.17.11,0h6a.58.58,0,0,1,0,1.16h-6l-.11,0-.4.16-.1.06-.56.57L51,47.4l-.17.4,0,.11v6q0,.93-.09,1.86v.12l.14.43.06.11.57.62.09.07.42.19.12,0h4.1a.58.58,0,0,1,.58.58v8a.58.58,0,0,1-.58.58.59.59,0,0,1-.59-.58v-6l0-.11-.16-.4-.07-.09-.56-.57-.09-.06-.41-.16-.1,0H51.27l-.42.13-.62.44-.27.35A18.63,18.63,0,0,1,32.19,72.5Zm-10-44c-.3,0-.6,0-.9.05l-.16,0a7.2,7.2,0,0,0-.78.16,7.55,7.55,0,0,0-1.82.74,7.44,7.44,0,0,0-3.75,6.43v18a17.42,17.42,0,1,0,34.83,0v-18A7.4,7.4,0,0,0,45.9,29.5l-.19-.1a7,7,0,0,0-1.59-.65c-.34-.08-.6-.13-.87-.17l-.12,0a7.62,7.62,0,0,0-.93-.06Zm20-1.17a9.08,9.08,0,0,1,1,.07l.17,0,.13,0,.49-.21.11-.09.59-.74.06-.13.09-.54v-.14a13.33,13.33,0,0,0-8.32-8.32,13.39,13.39,0,0,0-17,8.32v.15l.11.55.06.13.62.74.11.08.5.2.14,0a10.12,10.12,0,0,1,1.15-.08Z" transform="translate(-5.61 -11.33)"/><path class="cls-1" d="M32.17,38.56a.51.51,0,0,1-.54-.54V33.83a.54.54,0,0,1,1.08,0V38A.51.51,0,0,1,32.17,38.56Zm4.46,3.49V33.83a.54.54,0,0,0-1.08,0v7.68H32.17a.54.54,0,1,0,0,1.08h3.92A.54.54,0,0,0,36.63,42.05Zm-7.85,0V33.83a.54.54,0,1,0-1.07,0v8.22a.51.51,0,0,0,.54.54A.54.54,0,0,0,28.78,42.05Zm16,0a.51.51,0,0,0-.54-.54H40a.54.54,0,1,0,0,1.08h4.19A.59.59,0,0,0,44.8,42.05Zm0,7.85V46a.51.51,0,0,0-.54-.54H40a.5.5,0,0,0-.54.54V49.9a.54.54,0,1,0,1.07,0V46.51h3.12V49.9a.51.51,0,0,0,.54.54A.59.59,0,0,0,44.8,49.9ZM24.86,42.05a.51.51,0,0,0-.54-.54H20.13a.54.54,0,0,0,0,1.08h4.19A.54.54,0,0,0,24.86,42.05Zm7.85,7.85V46a.51.51,0,0,0-.54-.54h-12a.54.54,0,1,0,0,1.07h11.5V49.9a.51.51,0,0,0,.54.54A.54.54,0,0,0,32.71,49.9Zm-3.93,0a.51.51,0,0,0-.53-.54H20.13a.54.54,0,0,0,0,1.08h8.12A.54.54,0,0,0,28.78,49.9Zm0,8.06V53.82a.54.54,0,0,0-1.07,0V58a.51.51,0,0,0,.54.54A.54.54,0,0,0,28.78,58Zm16,0a.51.51,0,0,0-.54-.54H40a.54.54,0,1,0,0,1.08h4.19A.59.59,0,0,0,44.8,58Zm0-4.14a.51.51,0,0,0-.54-.53H36.63V46a.54.54,0,1,0-1.08,0v7.84a.51.51,0,0,0,.54.54h8.12A.59.59,0,0,0,44.8,53.82ZM36.63,58a.51.51,0,0,0-.54-.54H32.71v-3.6a.54.54,0,0,0-1.08,0V58a.51.51,0,0,0,.54.54h3.92A.54.54,0,0,0,36.63,58ZM24.86,58V53.82a.51.51,0,0,0-.54-.53H20.13a.51.51,0,0,0-.54.53V58a.51.51,0,0,0,.54.54h4.19A.54.54,0,0,0,24.86,58Zm-4.19-3.6h3.11v3.06H20.67ZM24.86,38V33.83a.51.51,0,0,0-.54-.54H20.13a.51.51,0,0,0-.54.54V38a.51.51,0,0,0,.54.53h4.19A.54.54,0,0,0,24.86,38Zm-4.19-3.6h3.11v3.06H20.67ZM44.8,38V33.83a.51.51,0,0,0-.54-.54H40a.51.51,0,0,0-.54.54V38a.5.5,0,0,0,.54.53h4.19A.58.58,0,0,0,44.8,38Zm-4.25-3.6h3.12v3.06H40.55Z" transform="translate(-5.61 -11.33)"/></svg>