<svg id="Laag_1" data-name="Laag 1" xmlns="http://www.w3.org/2000/svg" viewBox="0 0 53.16 61.17"><defs><style>.cls-1{fill:#689b64;}</style></defs><title>Slim vectorobject1</title><path class="cls-1" d="M33.26,72.82a18.5,18.5,0,0,1-17.72-13l-.25-.36-.6-.46-.42-.16h-3l-.11,0-.4.17-.09.06-.56.57-.07.09-.16.4,0,.11v6a.59.59,0,0,1-.59.58.58.58,0,0,1-.58-.58v-8a.58.58,0,0,1,.58-.58h4.1l.12,0,.42-.19.1-.06.56-.63.06-.1.14-.44v-.12c-.06-.61-.09-1.23-.09-1.85v-6l0-.11-.17-.4-.06-.09-.56-.57-.1-.06-.4-.17-.11,0h-6a.58.58,0,0,1,0-1.16h6l.11,0,.4-.16.1-.06.56-.57.06-.09.17-.4,0-.11v-8l0-.11-.17-.4-.06-.09-.56-.57-.1-.06-.4-.17-.11,0h-4a.58.58,0,0,1-.58-.58v-8a.58.58,0,0,1,.58-.58.59.59,0,0,1,.59.58v6l0,.11.16.4.07.09.56.57.09.06.41.16.1,0H14.1l.39-.11.6-.37.27-.3a8.8,8.8,0,0,1,2.9-3.6l.2-.21.27-.43.1-.26A14.63,14.63,0,0,1,31.44,15.79l.1,0,.36-.19L32,15.5l.49-.56.05-.09.14-.37,0-.1V12.24a.58.58,0,0,1,.58-.58.59.59,0,0,1,.59.58v2.24l.15.37.05.09.49.56.08.07.36.19.09,0A14.62,14.62,0,0,1,47.69,28.32l.09.27L48,29l.19.21a8.9,8.9,0,0,1,2.91,3.57l.25.32.58.39.38.12,2.92,0,.11,0,.4-.16.09-.06.57-.57.06-.09.17-.4,0-.11v-6a.58.58,0,0,1,.58-.58.59.59,0,0,1,.59.58v8a.59.59,0,0,1-.59.58h-4l-.1,0-.41.17-.09.06-.56.57-.07.09-.16.4,0,.11v8l0,.11.16.4.06.09.57.57.09.06.41.16.1,0h6a.58.58,0,1,1,0,1.16h-6l-.1,0-.41.17-.09.06-.57.57-.06.09-.16.4,0,.11v6a16.56,16.56,0,0,1-.1,1.86l0,.11.14.44.06.1.56.63.1.06.42.19.11,0h4.1a.59.59,0,0,1,.59.58v8a.59.59,0,0,1-.59.58.58.58,0,0,1-.58-.58v-6l0-.11-.17-.4-.06-.09-.56-.57-.1-.06-.4-.17-.11,0H52.34l-.42.12-.62.44-.27.35A18.63,18.63,0,0,1,33.26,72.82Zm-10-44a6.8,6.8,0,0,0-.9.06l-.17,0a7.45,7.45,0,0,0-.77.15,7.55,7.55,0,0,0-1.82.74,7.47,7.47,0,0,0-3.75,6.44v18a17.42,17.42,0,1,0,34.83,0v-18A7.45,7.45,0,0,0,47,29.82l-.19-.09a6.49,6.49,0,0,0-1.6-.65,7.87,7.87,0,0,0-.86-.18H44.2a6.09,6.09,0,0,0-.93-.07Zm20-1.16a7.41,7.41,0,0,1,1.05.07h.16l.14,0,.49-.22.11-.08.59-.75.06-.13L46,26v-.14a13.4,13.4,0,0,0-25.35,0V26l.1.55.06.13.63.75.11.08.5.2h.14a9.8,9.8,0,0,1,1.15-.07Z" transform="translate(-6.68 -11.66)"/></svg>