<svg id="Isolatiemodus" xmlns="http://www.w3.org/2000/svg" viewBox="0 0 270.24 265.3"><defs><style>.cls-1{fill:#fff;stroke:#fff;stroke-miterlimit:10;}</style></defs><title>crearoom</title><path class="cls-1" d="M137.63,496.39a126.79,126.79,0,0,1,5.2-35.87,133.77,133.77,0,0,1,38.91-61.93,126.83,126.83,0,0,1,32-21.14c.55-.5,1.66-.76,3.33-.76a6.66,6.66,0,0,1,5.82,3,5.27,5.27,0,0,1,.63,5.09A6.72,6.72,0,0,1,220,388.4a127.87,127.87,0,0,0-29.13,19.44,116.41,116.41,0,0,0-21.64,25.68,120,120,0,0,0-13.31,30.21,118.17,118.17,0,0,0-4.58,32.66,116.27,116.27,0,0,0,8.95,44.74,120.41,120.41,0,0,0,63.25,64.94q22.26,10,48.9,10t48.68-10a121.05,121.05,0,0,0,38.08-26.8,124.18,124.18,0,0,0,25-38.33,115.86,115.86,0,0,0,.62-87.79,121.54,121.54,0,0,0-23.3-37.38,123,123,0,0,0-36-27,117.68,117.68,0,0,0-46.4-12.09V403.5q0,6-6.65,6a83.66,83.66,0,0,0-35,7.18A81.24,81.24,0,0,0,210.66,436a88.9,88.9,0,0,0-23.1,59.66,87.71,87.71,0,0,0,23.31,59.28,84.11,84.11,0,0,0,26.84,19.26,82.23,82.23,0,0,0,34.75,7.17,83.71,83.71,0,0,0,35-7.17,85.08,85.08,0,0,0,27-19.07,83.88,83.88,0,0,0,17.27-27.37,87.68,87.68,0,0,0,6-32.1q0-27.18-14.35-48.71a82.43,82.43,0,0,0-38.91-31.33,5.37,5.37,0,0,1-3.54-3.21,5.17,5.17,0,0,1,.21-4.72q1.24-3.78,6.24-3.78a6.38,6.38,0,0,1,2.5.38,95.46,95.46,0,0,1,25.38,14.91,101.12,101.12,0,0,1,19.35,21.15,98.52,98.52,0,0,1,9.57,92.31A100.3,100.3,0,0,1,344,564a96,96,0,0,1-31.21,21.71,98.36,98.36,0,0,1-40.36,8.12q-22.06,0-40.16-8.3a102,102,0,0,1-31.21-21.9,96,96,0,0,1-20.19-31.34,98,98,0,0,1-7.07-36.63,99.68,99.68,0,0,1,6.45-35.3,95.4,95.4,0,0,1,18.52-30.59,103,103,0,0,1,28.92-22.27,90.55,90.55,0,0,1,37.66-10V370.28c0-4,2.35-6,7.08-6q29.54,0,54.09,11.14A139.13,139.13,0,0,1,369,404.82a134.21,134.21,0,0,1,27.88,42.1,126.54,126.54,0,0,1,10,49.47,127.85,127.85,0,0,1-10,49.65A133.36,133.36,0,0,1,369,588.33a135.63,135.63,0,0,1-42.65,29.26,131.79,131.79,0,0,1-53.89,10.95q-29.56,0-54.31-10.95a135.56,135.56,0,0,1-42.66-29.26A133.19,133.19,0,0,1,147.61,546,127.84,127.84,0,0,1,137.63,496.39Z" transform="translate(-137.13 -363.73)"/><path class="cls-1" d="M247.8,536.23a3.47,3.47,0,0,1-3.1-3.77v0L247,507.28l-16.35-19a3.54,3.54,0,0,1,.31-4.91,3.43,3.43,0,0,1,1.49-.77L256.67,477l12.64-21.74A3.36,3.36,0,0,1,274,454a3.53,3.53,0,0,1,1.22,1.24L287.82,477,312,482.55a3.47,3.47,0,0,1,2.56,4.16,3.37,3.37,0,0,1-.76,1.52l-16.34,19,2.27,25.16A3.41,3.41,0,0,1,295,536l-22.74-10.05L249.45,536a3.23,3.23,0,0,1-1.65.26Zm4.23-9L270.91,519a3.29,3.29,0,0,1,2.68,0l18.87,8.26-1.91-20.84a3.55,3.55,0,0,1,.83-2.58l13.56-15.74-20.06-4.63a3.36,3.36,0,0,1-2.16-1.58l-10.47-18-10.47,18a3.41,3.41,0,0,1-2.22,1.58l-20,4.63,13.56,15.74a3.5,3.5,0,0,1,.83,2.58Z" transform="translate(-137.13 -363.73)"/></svg>