<svg xmlns="http://www.w3.org/2000/svg" viewBox="0 0 269.24 264.3"><defs><style>.a{fill:#5eff00;}</style></defs><title>Middel 2logozz</title><path class="a" d="M0,132.15A126.9,126.9,0,0,1,5.2,96.28,133.81,133.81,0,0,1,44.11,34.36a127,127,0,0,1,32-21.14c.56-.51,1.67-.76,3.33-.76a6.69,6.69,0,0,1,5.83,3,5.31,5.31,0,0,1,.62,5.1,6.7,6.7,0,0,1-3.53,3.59A127,127,0,0,0,53.27,43.61,115.64,115.64,0,0,0,31.63,69.29a119.72,119.72,0,0,0-13.32,30.2,118.22,118.22,0,0,0-4.58,32.66,116.32,116.32,0,0,0,9,44.75,120.5,120.5,0,0,0,63.25,64.94q22.26,10,48.9,10t48.69-10A121.2,121.2,0,0,0,221.59,215a124.25,124.25,0,0,0,25-38.32,114.91,114.91,0,0,0,8.95-44.56,116.28,116.28,0,0,0-8.32-43.23,121.76,121.76,0,0,0-23.31-37.38,123,123,0,0,0-36-27,117.84,117.84,0,0,0-46.4-12.08V39.27c0,4-2.23,6-6.66,6a83.69,83.69,0,0,0-35,7.17A81.51,81.51,0,0,0,73,71.74,88.78,88.78,0,0,0,49.94,131.4a87.69,87.69,0,0,0,23.3,59.28,84.19,84.19,0,0,0,26.84,19.25,82.14,82.14,0,0,0,34.75,7.18,83.57,83.57,0,0,0,35-7.18,85,85,0,0,0,27-19.06,83.65,83.65,0,0,0,17.27-27.38,87.64,87.64,0,0,0,6-32.09q0-27.2-14.36-48.71a82.41,82.41,0,0,0-38.91-31.34,5.33,5.33,0,0,1-3.53-3.21,5.14,5.14,0,0,1,.2-4.72q1.26-3.77,6.25-3.77a6.58,6.58,0,0,1,2.49.37,95.54,95.54,0,0,1,25.39,14.92A101.06,101.06,0,0,1,217,76.08,97,97,0,0,1,229.5,102a98.17,98.17,0,0,1,4.37,29.45,96.65,96.65,0,0,1-7.28,37,100.77,100.77,0,0,1-20.18,31.34,96.39,96.39,0,0,1-31.21,21.71,98.44,98.44,0,0,1-40.37,8.12q-22.07,0-40.16-8.31a101.78,101.78,0,0,1-31.21-21.9A95.56,95.56,0,0,1,43.28,168,97.94,97.94,0,0,1,36.2,131.4a99.7,99.7,0,0,1,6.45-35.31A95.35,95.35,0,0,1,61.17,65.51,103.5,103.5,0,0,1,90.09,43.23a90.4,90.4,0,0,1,37.67-10V6q0-6,7.07-6,29.53,0,54.1,11.14a139,139,0,0,1,42.44,29.45,133.84,133.84,0,0,1,27.89,42.1,126.7,126.7,0,0,1,10,49.46,128,128,0,0,1-10,49.65,133.1,133.1,0,0,1-27.89,42.29,135.49,135.49,0,0,1-42.65,29.27q-24.76,11-53.89,10.94-29.55,0-54.31-10.94a135.27,135.27,0,0,1-42.65-29.27A133.08,133.08,0,0,1,10,181.8,127.85,127.85,0,0,1,0,132.15Z"/><path class="a" d="M110.18,172a3.46,3.46,0,0,1-3.1-3.77v0l2.32-25.16L93.05,124a3.53,3.53,0,0,1,.32-4.91,3.4,3.4,0,0,1,1.49-.78l24.19-5.58L131.68,91a3.38,3.38,0,0,1,5.88,0l12.64,21.73,24.18,5.58a3.48,3.48,0,0,1,2.57,4.17,3.64,3.64,0,0,1-.76,1.52l-16.35,19.05,2.27,25.16A3.45,3.45,0,0,1,159,172a3.25,3.25,0,0,1-1.68-.27l-22.74-10-22.79,10a3.35,3.35,0,0,1-1.65.27Zm4.22-9,18.88-8.27a3.37,3.37,0,0,1,2.68,0L154.84,163l-1.91-20.85a3.53,3.53,0,0,1,.82-2.57l13.57-15.74-20.06-4.63a3.43,3.43,0,0,1-2.17-1.58l-10.47-18-10.47,18a3.42,3.42,0,0,1-2.22,1.58l-20,4.63,13.57,15.74a3.53,3.53,0,0,1,.82,2.57Z"/></svg>