<svg id="Laag_1" data-name="Laag 1" xmlns="http://www.w3.org/2000/svg" viewBox="0 0 115.67 115.67"><defs><style>.cls-1{fill:#fff;}</style></defs><title>DEAD</title><path class="cls-1" d="M69.7,12.67A57.83,57.83,0,1,0,127.53,70.5,57.84,57.84,0,0,0,69.7,12.67Zm-34,66.19a8.36,8.36,0,1,1,8.37-8.36A8.36,8.36,0,0,1,35.69,78.86ZM79.86,105l-4.25,4.25-6.11-6.12-6.11,6.12L59.14,105l6.12-6.11-6.12-6.11,4.25-4.25,6.11,6.12,6.11-6.12,4.25,4.25-6.12,6.11Zm23.85-26.12a8.36,8.36,0,1,1,8.36-8.36A8.36,8.36,0,0,1,103.71,78.86Z" transform="translate(-11.86 -12.67)"/></svg>