<svg xmlns="http://www.w3.org/2000/svg" viewBox="0 0 81.71 89.9"><defs><style>.a{fill:#fff;}</style></defs><title>Middel 5logo</title><path class="a" d="M11.1,0c-9.81.54-19.35,19.72.61,13,8.1,12.46-9.16,30-8.59,45.73.1,2.87-.69,10.19,5.57,13l.31.13c-.13,5.55-.23,13.57.38,14,3.34,2.5,5.27,2.68,6.75,1.71l.06.07c4.86,3.64,6.72,2.35,8.59-.23.2-.28.34-7.34.41-12,4.29.36,8.38.4,11.81.46,0,3.73,0,7.64.35,7.92,2.77,2.07,4.26,2.07,5.43,1.11a2.94,2.94,0,0,0,.3,1.33c4.86,3.64,6.71,2.36,8.59-.23.27-.38.42-12.79.45-15.13a5.55,5.55,0,0,1,1.05-.11c-.23,5.57,5.48,9.7,9.75,10.45s17.54-7,18.79-13.69c-6.7,5.38-15,9.65-19.26,3.24C54.82,59.27,54.77,37,39.71,35.52c-12-1.17-20,7.73-19.42,4.17C22.58,26.49,23.7-.67,11.1,0Z"/></svg>