<svg xmlns="http://www.w3.org/2000/svg" viewBox="0 0 15.51 18.03"><defs><style>.a{fill:#fff;}</style></defs><title>Middel 9logo</title><path class="a" d="M13.25,0a2.31,2.31,0,0,1,1.83.75,2.29,2.29,0,0,1,.37.69,1.92,1.92,0,0,1,0,1.08c-.1.36-.22.79-.35,1.29s-.26,1-.4,1.49l-.39,1.36q-.18.63-.27.9c-.06.2-.15.44-.26.72a3.3,3.3,0,0,1-.46.81,2.61,2.61,0,0,1-.77.66,2.32,2.32,0,0,1-1.18.27H4.7a1.58,1.58,0,0,1-1.41-.54A1.87,1.87,0,0,1,3,8.85a2.75,2.75,0,0,1,.09-1c.18-.8.36-1.55.55-2.25S4,4.29,4.19,3.75c.1-.36.23-.53.4-.52s.21.24.11.7S4.43,5,4.25,5.67L3.65,8a1.7,1.7,0,0,0,0,.78.94.94,0,0,0,.23.39,1.26,1.26,0,0,0,.39.26,1.7,1.7,0,0,0,.66.1H11a2.32,2.32,0,0,0,1.2-.28A2.73,2.73,0,0,0,13,8.52a2.52,2.52,0,0,0,.42-.76l.18-.56c.22-.76.42-1.48.61-2.17s.4-1.46.62-2.3a2.24,2.24,0,0,0,.07-.84,1.71,1.71,0,0,0-.31-.78,1.7,1.7,0,0,0-.66-.4A2.38,2.38,0,0,0,13.1.57H6.5A3,3,0,0,0,5.24.81a2.45,2.45,0,0,0-.86.66,3.81,3.81,0,0,0-.57,1,6,6,0,0,0-.34,1.14L3.11,5C3,5.62,2.78,6.32,2.6,7.08L2,9.48l-.57,2.4c-.18.76-.35,1.45-.5,2.07S.7,15,.62,15.36a1.65,1.65,0,0,0,0,.93A1.74,1.74,0,0,0,1,17a1.77,1.77,0,0,0,.64.37,1.77,1.77,0,0,0,.65.14H9.35a2.13,2.13,0,0,0,.94-.19,2.18,2.18,0,0,0,.68-.5,2.38,2.38,0,0,0,.43-.68,4,4,0,0,0,.26-.76c.08-.38.14-.68.18-.91s.1-.52.18-.86a1.19,1.19,0,0,1,.16-.42q.11-.15.21-.15c.07,0,.13.06.17.18a1.2,1.2,0,0,1,0,.54c0,.28-.09.56-.14.84a8.72,8.72,0,0,1-.22.93q-.12.42-.27.87a2.36,2.36,0,0,1-.47.81,2.52,2.52,0,0,1-.81.6,3,3,0,0,1-1.3.24H2.24a2.63,2.63,0,0,1-1.08-.18,2.27,2.27,0,0,1-.72-.54,2.19,2.19,0,0,1-.38-.88,2.79,2.79,0,0,1,0-1.25l.36-1.41q.24-.93.51-2.07l.57-2.4.57-2.4c.18-.76.34-1.45.49-2.07s.27-1.1.35-1.44a8.93,8.93,0,0,1,.33-1.2A3.93,3.93,0,0,1,3.84,1.1a2.66,2.66,0,0,1,1-.8A3.91,3.91,0,0,1,6.5,0Z"/></svg>