<svg xmlns="http://www.w3.org/2000/svg" viewBox="0 0 101.16 9.54"><defs><style>.a{fill:#fff;}</style></defs><title>Middel 11logo</title><path class="a" d="M4.78,5H1V9.36H0V.48H4.78v.94H1V4.1H4.78Z"/><path class="a" d="M17,6.61a2.78,2.78,0,0,1-.89,2.07,3,3,0,0,1-4.24,0A2.78,2.78,0,0,1,11,6.6a3,3,0,0,1,.86-2.12A2.8,2.8,0,0,1,14,3.6a3,3,0,0,1,2.16.88A2.85,2.85,0,0,1,17,6.61Zm-.9,0a2,2,0,0,0-.6-1.48,1.93,1.93,0,0,0-1.44-.62,2.1,2.1,0,0,0-1.5.59A2,2,0,0,0,12,6.54,2,2,0,0,0,12.56,8,2,2,0,0,0,14,8.63,2.08,2.08,0,0,0,15.49,8,1.87,1.87,0,0,0,16.12,6.61Z"/><path class="a" d="M29,6.61a2.78,2.78,0,0,1-.89,2.07,3,3,0,0,1-4.24,0A2.78,2.78,0,0,1,23,6.6a3,3,0,0,1,.86-2.12A2.8,2.8,0,0,1,26,3.6a3,3,0,0,1,2.16.88A2.85,2.85,0,0,1,29,6.61Zm-.9,0a2,2,0,0,0-.6-1.48,1.93,1.93,0,0,0-1.44-.62,2.1,2.1,0,0,0-1.5.59A2,2,0,0,0,24,6.54,2,2,0,0,0,24.56,8,2,2,0,0,0,26,8.63,2.08,2.08,0,0,0,27.49,8,1.87,1.87,0,0,0,28.12,6.61Z"/><path class="a" d="M39.7,4.62h-1V9.36h-1V4.62h-.88V3.85h.88V1.61h1V3.85h1Z"/><path class="a" d="M52.38,4.69l-.82.47a1,1,0,0,0-.48-.56,1.65,1.65,0,0,0-.84-.22,1.12,1.12,0,0,0-.55.13.58.58,0,0,0-.31.33.9.9,0,0,0-.08.35.84.84,0,0,0,.36.61l1.87.66a1.4,1.4,0,0,1,.64.53,1.45,1.45,0,0,1,.21.76,1.73,1.73,0,0,1-.31,1,1.64,1.64,0,0,1-.83.66,3.91,3.91,0,0,1-.44.08,3.75,3.75,0,0,1-.45,0,2.79,2.79,0,0,1-1.25-.28,2.57,2.57,0,0,1-1-.81L49,7.86a1.53,1.53,0,0,0,.57.64,1.49,1.49,0,0,0,.83.25A1.16,1.16,0,0,0,51,8.57a1,1,0,0,0,.33-.33.6.6,0,0,0,.07-.3.67.67,0,0,0-.17-.46,1,1,0,0,0-.46-.32l-1.21-.37a1.77,1.77,0,0,1-.91-.59,1.54,1.54,0,0,1-.34-1,1.3,1.3,0,0,1,.51-1.14,2.58,2.58,0,0,1,.9-.43,6.19,6.19,0,0,1,.93-.07,2.06,2.06,0,0,1,1,.31A2.85,2.85,0,0,1,52.38,4.69Z"/><path class="a" d="M63.7,4.62h-1V9.36h-1V4.62h-.88V3.85h.88V1.61h1V3.85h1Z"/><path class="a" d="M77,6.61a2.78,2.78,0,0,1-.89,2.07,3,3,0,0,1-4.24,0A2.78,2.78,0,0,1,71,6.6a3,3,0,0,1,.86-2.12A2.8,2.8,0,0,1,74,3.6a3,3,0,0,1,2.16.88A2.85,2.85,0,0,1,77,6.61Zm-.9,0a2,2,0,0,0-.6-1.48,1.93,1.93,0,0,0-1.44-.62,2.1,2.1,0,0,0-1.5.59A2,2,0,0,0,72,6.54,2,2,0,0,0,72.56,8,2,2,0,0,0,74,8.63,2.08,2.08,0,0,0,75.49,8,1.87,1.87,0,0,0,76.12,6.61Z"/><path class="a" d="M88.34,9a1,1,0,0,1-.61.36,4.29,4.29,0,0,1-.9.09h-.37a3.14,3.14,0,0,1-1.59-.41,2.54,2.54,0,0,1-1.06-1.2,3.52,3.52,0,0,1-.28-1.36,2.9,2.9,0,0,1,.25-1.2,2.71,2.71,0,0,1,.71-1,2.46,2.46,0,0,1,1.05-.57,4.48,4.48,0,0,1,1.24-.16A3,3,0,0,1,88.25,4v1a.84.84,0,0,1-.45-.15,2.22,2.22,0,0,0-.52-.23,3.69,3.69,0,0,0-.58,0,2.55,2.55,0,0,0-.84.14,1.74,1.74,0,0,0-.69.44,2.2,2.2,0,0,0-.61,1.49A2.14,2.14,0,0,0,85,7.78a2.4,2.4,0,0,0,.22.24c.08.08.18.16.29.25a2.37,2.37,0,0,0,2.09.16,6.1,6.1,0,0,1,.59-.4.43.43,0,0,1,.2,0Z"/><path class="a" d="M101.16,9.36H99.65L96.78,6.51V9.36h-1V0h1V6.38l2.7-2.51h1.37L98,6.41Z"/></svg>