<svg xmlns="http://www.w3.org/2000/svg" viewBox="0 0 20.19 31.5"><defs><style>.a{fill:#a9a9a9;}</style></defs><title>Middel 1zee</title><path class="a" d="M14,28H6.2a1.33,1.33,0,1,1,0-2.65H14A1.33,1.33,0,1,1,14,28Z"/><path class="a" d="M14,31.5H6.2a1.33,1.33,0,1,1,0-2.65H14a1.33,1.33,0,1,1,0,2.65Z"/><path class="a" d="M16.87,18.08a10,10,0,0,0-2.43,6.05H5.75a10.1,10.1,0,0,0-2.43-6.05C-.52,13.83,0,9.67,0,9.67H0Q0,9.36,0,9c0-5,4.52-9,10.1-9S20.19,4.05,20.19,9q0,.32,0,.63h0S20.71,13.83,16.87,18.08ZM7.81,2.75S.92,6.32,3.42,12.53C3.42,12.53,4.48,6.21,7.81,2.75Z"/></svg>