<svg id="Laag_1" data-name="Laag 1" xmlns="http://www.w3.org/2000/svg" viewBox="0 0 64 64"><defs><style>.cls-1{fill:#a9a9a9;}</style></defs><title>lamp</title><path class="cls-1" d="M22.22,19.07A5.26,5.26,0,0,0,17,24.29V77.82a5.29,5.29,0,0,0,5.25,5.25h53.5A5.29,5.29,0,0,0,81,77.82V24.29a5.26,5.26,0,0,0-5.25-5.22Zm0,4h53.5A1.19,1.19,0,0,1,77,24.29V77.82a1.21,1.21,0,0,1-1.25,1.25H22.22A1.21,1.21,0,0,1,21,77.82V24.29A1.19,1.19,0,0,1,22.22,23.07Z" transform="translate(-16.97 -19.07)"/><path class="cls-1" d="M52.86,63.35H45.07a1.33,1.33,0,0,1,0-2.66h7.79a1.33,1.33,0,0,1,0,2.66Z" transform="translate(-16.97 -19.07)"/><path class="cls-1" d="M52.86,66.82H45.07a1.33,1.33,0,0,1,0-2.65h7.79a1.33,1.33,0,1,1,0,2.65Z" transform="translate(-16.97 -19.07)"/><path class="cls-1" d="M55.74,53.4a10,10,0,0,0-2.42,6.05h-8.7A10,10,0,0,0,42.2,53.4C38.35,49.16,38.9,45,38.9,45h0c0-.21,0-.42,0-.63,0-5,4.52-9,10.09-9s10.09,4,10.09,9c0,.21,0,.43,0,.63h0S59.59,49.16,55.74,53.4ZM46.69,38.08s-6.9,3.57-4.4,9.78C42.29,47.86,43.35,41.53,46.69,38.08Z" transform="translate(-16.97 -19.07)"/></svg>