<svg id="Laag_1" data-name="Laag 1" xmlns="http://www.w3.org/2000/svg" viewBox="0 0 87.99 88"><defs><style>.cls-1{fill:#00ff06;}</style></defs><title>lock</title><path class="cls-1" d="M47.14,94.4a44,44,0,1,1,44-44A44,44,0,0,1,47.14,94.4Zm0-85.23A41.24,41.24,0,1,0,88.38,50.4,41.28,41.28,0,0,0,47.14,9.17Z" transform="translate(-3.15 -6.41)"/><path class="cls-1" d="M37.35,68.42a1.38,1.38,0,0,1-1.28-1.88l5.18-13.19L40.85,52a10.82,10.82,0,1,1,12.58,0L53,53.35l5.18,13.19a1.37,1.37,0,0,1-1.28,1.88Zm9.79-33.27a8.06,8.06,0,0,0-3.26,15.43,1.38,1.38,0,0,1,.72,1.77L40,64.11,41,65.66h12.2l1.06-1.55L49.68,52.35a1.38,1.38,0,0,1,.72-1.77,8.06,8.06,0,0,0-3.26-15.43Z" transform="translate(-3.15 -6.41)"/></svg>