<svg id="black_logo" data-name="black logo" xmlns="http://www.w3.org/2000/svg" viewBox="0 0 755.97 141"><defs><style>.cls-1{fill:#fff;}</style></defs><title>logo</title><path class="cls-1" d="M186.19,493.75a3.41,3.41,0,0,1-3.4-3.4V432a3.41,3.41,0,0,1,3.4-3.4,3,3,0,0,1,2.3,1,3.48,3.48,0,0,1,.9,2.4v55.2h51.4a3.48,3.48,0,0,1,2.4.9,3,3,0,0,1,1,2.3,3.41,3.41,0,0,1-3.4,3.4Z" transform="translate(-120.82 -428.55)"/><path class="cls-1" d="M186.19,569.35a3.41,3.41,0,0,1-3.4-3.4V508a3.41,3.41,0,0,1,3.4-3.4h54.6a3.41,3.41,0,0,1,3.4,3.4,3,3,0,0,1-1,2.3,3.48,3.48,0,0,1-2.4.9h-51.4v51.6h69.4q3.19,0,3.2,3.2a3.48,3.48,0,0,1-.9,2.4,3,3,0,0,1-2.3,1Z" transform="translate(-120.82 -428.55)"/><path class="cls-1" d="M202.59,435.75a3,3,0,0,1-2.3-1,3.48,3.48,0,0,1-.9-2.4q0-3.19,3.2-3.2h56.2a3.48,3.48,0,0,1,2.4.9,3,3,0,0,1,1,2.3,3.41,3.41,0,0,1-3.4,3.4Z" transform="translate(-120.82 -428.55)"/><path class="cls-1" d="M258.39,446.55a3.41,3.41,0,0,1,3.4,3.4,3,3,0,0,1-1,2.3,3.48,3.48,0,0,1-2.4.9h-51.8v22.4a3.41,3.41,0,0,1-3.4,3.4,3,3,0,0,1-2.3-1,3.48,3.48,0,0,1-.9-2.4V450a3.48,3.48,0,0,1,.9-2.4,3,3,0,0,1,2.3-1Z" transform="translate(-120.82 -428.55)"/><path class="cls-1" d="M203.19,518.75a3.48,3.48,0,0,1,2.4.9,3.18,3.18,0,0,1,1,2.5v23.6h40a3.41,3.41,0,0,1,3.4,3.4,3,3,0,0,1-1,2.3,3.48,3.48,0,0,1-2.4.9h-43.4q-3.19,0-3.2-3.2v-27Q200,518.75,203.19,518.75Z" transform="translate(-120.82 -428.55)"/><path class="cls-1" d="M335.59,569.35a56.8,56.8,0,0,1-19.1-4.4,45.08,45.08,0,0,1-15.3-10.6,44.45,44.45,0,0,1-9.3-14.8,42.66,42.66,0,0,1-2.7-17.2,3.27,3.27,0,0,1,3.6-3.2,3.93,3.93,0,0,1,2.3,1.1,2.85,2.85,0,0,1,.7,2.5,35.8,35.8,0,0,0,10.2,27,41.9,41.9,0,0,0,13.2,9.2,45.2,45.2,0,0,0,16.6,3.8,3.18,3.18,0,0,1,2.5,1,2.84,2.84,0,0,1,.7,2.4,3,3,0,0,1-1,2.3,3.23,3.23,0,0,1-2.2.9Z" transform="translate(-120.82 -428.55)"/><path class="cls-1" d="M300.59,493.35q-11-10-10-23.8c0-.27,0-.93.1-2a17.53,17.53,0,0,1,.8-3.9,27.53,27.53,0,0,1,2.1-4.9,19.45,19.45,0,0,1,4-5,26.92,26.92,0,0,1,15.1-7.8,109.16,109.16,0,0,1,17.3-1.4q2.81.19,8.8,1.1a34.71,34.71,0,0,1,12,4.3q15,8.21,14.4,25.6a3.09,3.09,0,0,1-3.4,3,3.18,3.18,0,0,1-2.5-1,2.84,2.84,0,0,1-.7-2.4q.41-7.39-3-12.2a15.94,15.94,0,0,0-4.8-5.3,31,31,0,0,0-6.6-3.5,41.77,41.77,0,0,0-7.3-2.1,54.72,54.72,0,0,0-7.1-.9,110.6,110.6,0,0,0-14.7,1,22.4,22.4,0,0,0-12.9,6.2q-3.79,3.6-4.4,7.2c-.4,2.4-.6,3.73-.6,4a25.23,25.23,0,0,0,1.6,10.3,22.78,22.78,0,0,0,5.6,8.1,49.65,49.65,0,0,0,9.1,6.7,103.91,103.91,0,0,0,11.9,5.9l3,1.4q7.8,3.41,14.3,6.5a68.08,68.08,0,0,1,11.1,6.5,21,21,0,0,1,7.4,7.6,12.62,12.62,0,0,1,1.4,10,3,3,0,0,1-3.2,2.4,4.39,4.39,0,0,1-2.8-1.5,2.75,2.75,0,0,1-.4-2.5q1.6-6-6.6-11a227.09,227.09,0,0,0-23.8-12l-3-1.2q-5.6-2.6-11.6-5.7A42.46,42.46,0,0,1,300.59,493.35Z" transform="translate(-120.82 -428.55)"/><path class="cls-1" d="M376,543.15a29.8,29.8,0,0,1-15.7,9.2,90.15,90.15,0,0,1-18.3,1.8,52.54,52.54,0,0,1-9.9-1.4,45.33,45.33,0,0,1-9.6-3.4,32.53,32.53,0,0,1-8.1-5.6,23.6,23.6,0,0,1-5.6-8.2,3.61,3.61,0,0,1,.1-2.5,3.39,3.39,0,0,1,1.7-1.9,1.33,1.33,0,0,0,.6-.1,1.33,1.33,0,0,1,.6-.1,3.35,3.35,0,0,1,3.2,2,16.82,16.82,0,0,0,4.6,6.6,27.44,27.44,0,0,0,6.8,4.3,36.31,36.31,0,0,0,7.9,2.5c2.73.53,5.37.93,7.9,1.2a94.28,94.28,0,0,0,10.4-.6,37.12,37.12,0,0,0,10.2-2.6,26.6,26.6,0,0,0,8.4-5.5,18.7,18.7,0,0,0,5-9.3,35.48,35.48,0,0,0-.4-8,12.81,12.81,0,0,0-3-5.8,40.27,40.27,0,0,0-9.6-7.3,191.24,191.24,0,0,0-18.2-9.1q-8.6-3.8-15.3-7.2a80.08,80.08,0,0,1-11.3-6.8q-11.81-8.81-10-18.6a2.74,2.74,0,0,1,1.5-2.2,7.21,7.21,0,0,1,2.5-.4,2.84,2.84,0,0,1,2.1,1.3,3.57,3.57,0,0,1,.5,2.5,8.58,8.58,0,0,0,1.8,6.7,27.6,27.6,0,0,0,7,6.4,93.6,93.6,0,0,0,10.9,6.2q6.3,3.11,13.1,6.1a201.3,201.3,0,0,1,19.5,10,42.57,42.57,0,0,1,10.3,8.2,17.36,17.36,0,0,1,4.7,8.8,40.72,40.72,0,0,1,.3,9.6,43,43,0,0,1-1.2,4.5A23.06,23.06,0,0,1,376,543.15Z" transform="translate(-120.82 -428.55)"/><path class="cls-1" d="M372,444.55q11.81,13,10.8,31.8-.41,3.19-3.4,3.2-3.6-.41-3.2-3.6a39,39,0,0,0-2-14.8A34,34,0,0,0,367,449a35.79,35.79,0,0,0-13.1-9.1,54.28,54.28,0,0,0-17.7-3.9,3.27,3.27,0,0,1-2.4-1,2.69,2.69,0,0,1-.8-2.4,3,3,0,0,1,1-2.3,3.48,3.48,0,0,1,2.4-.9Q359.19,430.55,372,444.55Z" transform="translate(-120.82 -428.55)"/><path class="cls-1" d="M469.59,550.35a43.14,43.14,0,0,1-18.4-3.9,48.17,48.17,0,0,1-14.7-10.5,52.15,52.15,0,0,1-10.1-15.3,50.51,50.51,0,0,1-4.2-18.3h-12.8q-3.19,0-3.2-3.2a74.42,74.42,0,0,1,4.7-26.2,71.22,71.22,0,0,1,13.2-22.3,66.18,66.18,0,0,1,20.2-15.6,56.28,56.28,0,0,1,25.7-5.9,57.88,57.88,0,0,1,19.5,3.3,61.85,61.85,0,0,1,17,9.2,68,68,0,0,1,13.6,14,70.2,70.2,0,0,1,9.3,17.5,4.22,4.22,0,0,1-.1,2.7,2.72,2.72,0,0,1-1.9,1.7.85.85,0,0,0-.4.1,1.38,1.38,0,0,1-.6.1,3.58,3.58,0,0,1-3.2-2.2,62.38,62.38,0,0,0-8.3-15.7,63.18,63.18,0,0,0-12.2-12.7,54.68,54.68,0,0,0-15.2-8.4,52.87,52.87,0,0,0-40,2,56.86,56.86,0,0,0-17.8,13.4,65.84,65.84,0,0,0-11.9,19.2,68.16,68.16,0,0,0-5,22.4h12.6a3,3,0,0,1,2.3,1,3.48,3.48,0,0,1,.9,2.4,47.73,47.73,0,0,0,3,16.7,45.7,45.7,0,0,0,8.4,14.3,40.66,40.66,0,0,0,13,9.9,37.35,37.35,0,0,0,16.6,3.7,38.67,38.67,0,0,0,21.6-6.4,41.09,41.09,0,0,0,15-17.8,3.22,3.22,0,0,1,3-1.8,4.54,4.54,0,0,1,1.4.2,3,3,0,0,1,1.6,1.9,4,4,0,0,1,0,2.5,50.22,50.22,0,0,1-17.3,20.3A44,44,0,0,1,469.59,550.35Z" transform="translate(-120.82 -428.55)"/><path class="cls-1" d="M470,569.15a58.12,58.12,0,0,1-20.8-3.8,62.55,62.55,0,0,1-18.2-10.7,67.53,67.53,0,0,1-14.1-16.5,73.06,73.06,0,0,1-8.7-21,2.72,2.72,0,0,1,.4-2.5,4,4,0,0,1,2.2-1.5,6.26,6.26,0,0,1,2.4.5,2.24,2.24,0,0,1,1.4,1.9,67.65,67.65,0,0,0,7.5,18.2,62.83,62.83,0,0,0,12.3,15,56.59,56.59,0,0,0,16.2,10.1,50.43,50.43,0,0,0,19.4,3.7,51.21,51.21,0,0,0,17.7-3.1,56.39,56.39,0,0,0,15.6-8.7,61.53,61.53,0,0,0,12.5-13.4,63.76,63.76,0,0,0,8.4-17.4,3,3,0,0,1,3.2-2.4.88.88,0,0,1,.4.1,1.33,1.33,0,0,0,.6.1q2.8,1,2.2,4.2a73.14,73.14,0,0,1-9.4,19.3,66.34,66.34,0,0,1-14,14.9,63.43,63.43,0,0,1-17.5,9.6A58,58,0,0,1,470,569.15Z" transform="translate(-120.82 -428.55)"/><path class="cls-1" d="M428,485.75q-4.2-1.2-3.2-4.4a50.52,50.52,0,0,1,6.8-13.4,52.39,52.39,0,0,1,10.2-10.8,45.09,45.09,0,0,1,46.6-5.5,47.1,47.1,0,0,1,15.4,11.5,2.81,2.81,0,0,1,.9,2.3,3.57,3.57,0,0,1-1.1,2.3,3,3,0,0,1-2.2.8,3.26,3.26,0,0,1-2.4-1,41.23,41.23,0,0,0-13.4-9.9,38.58,38.58,0,0,0-28.9-1.3,38.52,38.52,0,0,0-11.1,6.2,44.44,44.44,0,0,0-8.7,9.3,42.1,42.1,0,0,0-5.7,11.7A3.33,3.33,0,0,1,428,485.75Z" transform="translate(-120.82 -428.55)"/><path class="cls-1" d="M548.79,568.75q-4-1.2-3-4.4L595,432.15a3.32,3.32,0,0,1,3.2-2.2H601a3.34,3.34,0,0,1,3.2,2.2l23.8,72.6a3.52,3.52,0,0,1-.2,2.6,3.07,3.07,0,0,1-2,1.6c-.27,0-.44,0-.5.1a.79.79,0,0,1-.5.1,3.34,3.34,0,0,1-3.2-2.4l-22.2-67.6L552,566.75A3.36,3.36,0,0,1,548.79,568.75Z" transform="translate(-120.82 -428.55)"/><path class="cls-1" d="M571.19,558.15q-4-1.2-3-4.4l27.8-82a3.58,3.58,0,0,1,3.2-2.2,1.38,1.38,0,0,1,.6.1.82.82,0,0,0,.4.1,3,3,0,0,1,2,1.7,3.33,3.33,0,0,1,.2,2.5l-28,82A3.34,3.34,0,0,1,571.19,558.15Z" transform="translate(-120.82 -428.55)"/><path class="cls-1" d="M640.59,558a2.79,2.79,0,0,1-3-2.2l-5-15h-39.8a2.94,2.94,0,0,1-2.3-1,3.48,3.48,0,0,1-.9-2.4c0-2.13,1.06-3.2,3.2-3.2H635a3.34,3.34,0,0,1,3.2,2.2l5.6,17.4a3.14,3.14,0,0,1-2.2,4Z" transform="translate(-120.82 -428.55)"/><path class="cls-1" d="M662,568.75a3.34,3.34,0,0,1-3.2-2l-16-43.6h-44.4a3.18,3.18,0,0,1-2.5-1,3.48,3.48,0,0,1-.9-2.4q0-3.19,3.4-3.2h46.8a3.24,3.24,0,0,1,3,1.8l16.8,46c.66,2.13,0,3.53-2,4.2Z" transform="translate(-120.82 -428.55)"/><path class="cls-1" d="M640,509a3.32,3.32,0,0,1-3.2-2.2l-20-61.4q-1-3.19,2-4.2a2.25,2.25,0,0,1,1-.2,3.11,3.11,0,0,1,3.2,2.2l20.2,61.4a3.52,3.52,0,0,1-.2,2.6,3.07,3.07,0,0,1-2,1.6Z" transform="translate(-120.82 -428.55)"/><path class="cls-1" d="M693.79,450.15a3.48,3.48,0,0,1,.9-2.4,3.18,3.18,0,0,1,2.5-1h26a39.88,39.88,0,0,1,10.3,1.3,23.52,23.52,0,0,1,8.5,4.1,20.76,20.76,0,0,1,5.8,7.2,23.08,23.08,0,0,1,2.2,10.4,23.92,23.92,0,0,1-2.1,10.4,22.21,22.21,0,0,1-5.8,7.5,24.33,24.33,0,0,1-8.6,4.6,35,35,0,0,1-10.3,1.5H715c-2.14,0-3.2-1.07-3.2-3.2v-14c0-2.13,1.06-3.2,3.2-3.2a3.48,3.48,0,0,1,2.4.9,3,3,0,0,1,1,2.3v10.6h4.8a24.15,24.15,0,0,0,14.2-4.2q6-4.2,6-13.2a15.89,15.89,0,0,0-1.7-7.7,15.56,15.56,0,0,0-4.4-5.1,16.48,16.48,0,0,0-6.4-2.8,36.63,36.63,0,0,0-7.7-.8h-22.8v112.8a3.48,3.48,0,0,1-.9,2.4,3,3,0,0,1-2.3,1,3.18,3.18,0,0,1-2.5-1,3.48,3.48,0,0,1-.9-2.4Z" transform="translate(-120.82 -428.55)"/><path class="cls-1" d="M715,554.15c-2.14,0-3.2-1.07-3.2-3.2V508c0-2.13,1.06-3.2,3.2-3.2h15.6a32.26,32.26,0,0,0,7.7-1.4,30.08,30.08,0,0,0,10.3-5.4q12.2-10,12.2-29.6a41,41,0,0,0-2-13,29.55,29.55,0,0,0-5.8-10.3,26.93,26.93,0,0,0-9.5-6.8,31.75,31.75,0,0,0-12.9-2.5h-15.8a3.41,3.41,0,0,1-3.4-3.4,3,3,0,0,1,1-2.3,3.44,3.44,0,0,1,2.4-.9h15.8a39,39,0,0,1,15.7,3,32.77,32.77,0,0,1,11.6,8.3A35.54,35.54,0,0,1,765,453a48.38,48.38,0,0,1,2.4,15.4,55.38,55.38,0,0,1-3.4,19.1,34.12,34.12,0,0,1-11.4,15.5,36.94,36.94,0,0,1-11.9,6.5,35.35,35.35,0,0,1-10.1,1.9h-12.2V551a3,3,0,0,1-1,2.3A3.48,3.48,0,0,1,715,554.15Z" transform="translate(-120.82 -428.55)"/><path class="cls-1" d="M800.79,493.75a3.41,3.41,0,0,1-3.4-3.4V432a3.41,3.41,0,0,1,3.4-3.4,3,3,0,0,1,2.3,1,3.48,3.48,0,0,1,.9,2.4v55.2h51.4a3.48,3.48,0,0,1,2.4.9,3,3,0,0,1,1,2.3,3.31,3.31,0,0,1-1,2.4,3.27,3.27,0,0,1-2.4,1Z" transform="translate(-120.82 -428.55)"/><path class="cls-1" d="M800.79,569.35a3.41,3.41,0,0,1-3.4-3.4V508a3.41,3.41,0,0,1,3.4-3.4h54.6a3.27,3.27,0,0,1,2.4,1,3.31,3.31,0,0,1,1,2.4,3,3,0,0,1-1,2.3,3.48,3.48,0,0,1-2.4.9H804v51.6h69.4q3.2,0,3.2,3.2a3.48,3.48,0,0,1-.9,2.4,3,3,0,0,1-2.3,1Z" transform="translate(-120.82 -428.55)"/><path class="cls-1" d="M817.19,435.75a2.94,2.94,0,0,1-2.3-1,3.48,3.48,0,0,1-.9-2.4c0-2.13,1.06-3.2,3.2-3.2h56.2a3.48,3.48,0,0,1,2.4.9,3,3,0,0,1,1,2.3,3.31,3.31,0,0,1-1,2.4,3.27,3.27,0,0,1-2.4,1Z" transform="translate(-120.82 -428.55)"/><path class="cls-1" d="M873,446.55a3.27,3.27,0,0,1,2.4,1,3.31,3.31,0,0,1,1,2.4,3,3,0,0,1-1,2.3,3.48,3.48,0,0,1-2.4.9h-51.8v22.4a3.31,3.31,0,0,1-1,2.4,3.27,3.27,0,0,1-2.4,1,2.94,2.94,0,0,1-2.3-1,3.48,3.48,0,0,1-.9-2.4V450a3.48,3.48,0,0,1,.9-2.4,2.94,2.94,0,0,1,2.3-1Z" transform="translate(-120.82 -428.55)"/><path class="cls-1" d="M817.79,518.75a3.48,3.48,0,0,1,2.4.9,3.21,3.21,0,0,1,1,2.5v23.6h40a3.27,3.27,0,0,1,2.4,1,3.31,3.31,0,0,1,1,2.4,3,3,0,0,1-1,2.3,3.48,3.48,0,0,1-2.4.9h-43.4c-2.14,0-3.2-1.07-3.2-3.2v-27C814.59,519.88,815.65,518.75,817.79,518.75Z" transform="translate(-120.82 -428.55)"/><path class="cls-1" d="M153.2,468.67h-.91l-27.28-30v29.2h-4.19V429.58h1.05l27,30V430.49h4.3Z" transform="translate(-120.82 -428.55)"/><path class="cls-1" d="M148.66,486.89l-9.3,11.57,9.19,11.92-5.34,0-6.17-9-6.24,9-5.18,0,9.14-11.62-9.14-11.87,5.31,0,6.18,9,6.35-9Z" transform="translate(-120.82 -428.55)"/><path class="cls-1" d="M149.36,535.45H138.6v33.44H134V535.45H123.19v-3.94h26.17Z" transform="translate(-120.82 -428.55)"/></svg>