<svg xmlns="http://www.w3.org/2000/svg" viewBox="0 0 59.32 90.14"><defs><style>.a{fill:#fff;fill-rule:evenodd;}</style></defs><title>Middel 4logo</title><path class="a" d="M50.53,39.06a3.68,3.68,0,0,1-1.21-1.55c-1.63-3.48-3-7.08-4.86-10.44a16.91,16.91,0,0,0-8.29-7.75,1.65,1.65,0,0,1-.49-1.46,27.35,27.35,0,0,1,5.67-11,4,4,0,0,0,.5-1.36c-.43-.14-1-.51-1.29-.38a19.92,19.92,0,0,0-3.41,1.59c-.45.26-.7.88-1.14,1.49l-.77-2.24a2.86,2.86,0,0,0-1.47,3.31c.73,2.9-1.2,5-1.61,7.69-.26-.22-.39-.28-.4-.35-.07-.37-.1-.74-.15-1.11-.53-3.88-1.24-7.71-3.16-11.2A8.2,8.2,0,0,0,23.85.05a4.52,4.52,0,0,0-1.5.07,4.33,4.33,0,0,0,.41,1.39A23.17,23.17,0,0,1,27,11.8c.3,2.13.26,4.32.38,6.48-1.26-1.43-2-2.91-3-4.22a11.66,11.66,0,0,0-9.26-5,5.19,5.19,0,0,0-1.77.66,8.28,8.28,0,0,0,1.22,1.08c1.52.92,3.08,1.77,4.78,2.75-1.74.51-3.13.85-4.45,1.37-.36.14-.51.82-.75,1.25a4.09,4.09,0,0,0,1.25.53c1.65.06,3.32.1,5,0a3,3,0,0,1,3.38,2.45A15.33,15.33,0,0,0,15.62,26c-2,3.62-3.63,7.48-5.49,11.19a5.18,5.18,0,0,1-1.72,2.08A17,17,0,0,0,.48,57.88,57.22,57.22,0,0,0,6,72.21C9.71,79,14.54,84.66,21.7,87.93c3.15,1.45,6.43,2.75,10,2a27.79,27.79,0,0,0,13.6-7.16c6.93-6.58,10.88-14.85,13.27-23.94C60.79,50.51,57.84,43.51,50.53,39.06Z"/></svg>