<svg xmlns="http://www.w3.org/2000/svg" viewBox="0 0 77.47 9.54"><defs><style>.a{fill:#fff;}</style></defs><title>Middel 10logo</title><path class="a" d="M5.11,2.68V3a2.29,2.29,0,0,1-.6,1.6A2.27,2.27,0,0,1,3,5.35H1.09v4H0V.48l2.88,0a2.75,2.75,0,0,1,1.59.69A1.87,1.87,0,0,1,5.11,2.68Zm-2-1.11a3.4,3.4,0,0,0-.59-.14H1.09v3H2.88a1.49,1.49,0,0,0,.82-.59,1.65,1.65,0,0,0,.3-1,1.58,1.58,0,0,0-.22-.8A1.28,1.28,0,0,0,3.12,1.57Z"/><path class="a" d="M17.33,6.61a2.8,2.8,0,0,1-.88,2.07,3.06,3.06,0,0,1-4.25,0,2.77,2.77,0,0,1-.88-2.08,2.94,2.94,0,0,1,.85-2.12,2.82,2.82,0,0,1,2.1-.88,3,3,0,0,1,2.16.88A2.85,2.85,0,0,1,17.33,6.61Zm-.9,0a2,2,0,0,0-.6-1.48,1.91,1.91,0,0,0-1.44-.62,2.12,2.12,0,0,0-1.5.59,1.94,1.94,0,0,0-.61,1.44A2,2,0,0,0,12.88,8a2,2,0,0,0,1.45.62A2.06,2.06,0,0,0,15.8,8,1.87,1.87,0,0,0,16.43,6.61Z"/><path class="a" d="M26.92,9.36h-1V0h1Z"/><path class="a" d="M38.92,9.36h-1V0h1Z"/><path class="a" d="M53.33,6.61a2.8,2.8,0,0,1-.88,2.07,3.06,3.06,0,0,1-4.25,0,2.77,2.77,0,0,1-.88-2.08,2.94,2.94,0,0,1,.85-2.12,2.82,2.82,0,0,1,2.1-.88,3,3,0,0,1,2.16.88A2.85,2.85,0,0,1,53.33,6.61Zm-.9,0a2,2,0,0,0-.6-1.48,1.91,1.91,0,0,0-1.44-.62,2.08,2.08,0,0,0-1.49.59,1.91,1.91,0,0,0-.62,1.44A2,2,0,0,0,48.88,8a2,2,0,0,0,1.45.62A2.06,2.06,0,0,0,51.8,8,1.87,1.87,0,0,0,52.43,6.61Z"/><path class="a" d="M64.66,9a1,1,0,0,1-.62.36,4.26,4.26,0,0,1-.89.09h-.38a3.14,3.14,0,0,1-1.59-.41,2.54,2.54,0,0,1-1.06-1.2,3.72,3.72,0,0,1-.28-1.36,3.07,3.07,0,0,1,.25-1.2,2.71,2.71,0,0,1,.71-1,2.52,2.52,0,0,1,1.05-.57A4.5,4.5,0,0,1,63.1,3.6,3,3,0,0,1,64.56,4v1a.84.84,0,0,1-.45-.15,2.22,2.22,0,0,0-.52-.23,3.59,3.59,0,0,0-.58,0,2.64,2.64,0,0,0-.84.14,1.81,1.81,0,0,0-.69.44,2.24,2.24,0,0,0-.6,1.49,2.13,2.13,0,0,0,.38,1.2,2.4,2.4,0,0,0,.22.24c.09.08.18.16.3.25A2.26,2.26,0,0,0,63,8.6a2.29,2.29,0,0,0,.88-.17,6.1,6.1,0,0,1,.59-.4.46.46,0,0,1,.21,0Z"/><path class="a" d="M77.47,9.36H76L73.09,6.51V9.36h-1V0h1V6.38l2.7-2.51h1.37L74.3,6.41Z"/></svg>