<svg xmlns="http://www.w3.org/2000/svg" viewBox="0 0 15.19 18"><defs><style>.a{fill:#fff;}</style></defs><title>Middel 8logo</title><path class="a" d="M3.73,1.41a2.33,2.33,0,0,1,.45-.8A1.67,1.67,0,0,1,4.79.19,2.52,2.52,0,0,1,5.5,0l.69,0h8a1,1,0,0,1,.78.31.92.92,0,0,1,.27.56,1.15,1.15,0,0,1-.27.75,1,1,0,0,1-.78.33H6.55a1.32,1.32,0,0,0-1,.3,2.84,2.84,0,0,0-.43.57c-.1.28-.21.62-.32,1L4.51,5a.6.6,0,0,1-.18.36.23.23,0,0,1-.21.06A.28.28,0,0,1,4,5.22.74.74,0,0,1,4,4.8l.15-.51c.06-.2.11-.4.16-.6s.1-.39.14-.57a2.85,2.85,0,0,1,.12-.42,2.37,2.37,0,0,1,.36-.78,1.47,1.47,0,0,1,.46-.41,1.5,1.5,0,0,1,.56-.15h.63l7.38,0a.75.75,0,0,0,.39-.09.39.39,0,0,0,.15-.36.35.35,0,0,0-.12-.26.39.39,0,0,0-.27-.1L6.19.54Q4.6.54,4.24,1.59,3.76,3,3.19,5.1A2.08,2.08,0,0,0,3.1,6c0,.3.3.52.78.68l1.41.51L7.48,8c.78.3,1.54.57,2.29.84l1.76.62.66.25a1.42,1.42,0,0,1,.55.42,1.54,1.54,0,0,1,.29.77,4,4,0,0,1-.12,1.29q-.33,1.38-.63,2.46t-.45,1.59a2.75,2.75,0,0,1-.89,1.27,2.16,2.16,0,0,1-1.39.5H1.42a1.54,1.54,0,0,1-.69-.14,2.09,2.09,0,0,1-.54-.4A1.18,1.18,0,0,1,0,17a2.8,2.8,0,0,1,.06-.75L.64,13.8a.79.79,0,0,1,.4-.56.94.94,0,0,1,.74,0,.81.81,0,0,1,.57,1L2,15.54c-.1.38-.05.6.15.64a4,4,0,0,0,1,.05H9q.66,0,.6.27t-.6.27H3.19a3.17,3.17,0,0,1-1.59-.21.53.53,0,0,1-.2-.41,3.05,3.05,0,0,1,.11-.52l.33-1.35a.34.34,0,0,0,0-.26.62.62,0,0,0-.1-.16l-.15-.09q-.27-.09-.42.42L.64,16.35a1.47,1.47,0,0,0,0,.42.65.65,0,0,0,.18.39.87.87,0,0,0,.55.27l.59,0H9a2.63,2.63,0,0,0,1.56-.38,2.15,2.15,0,0,0,.75-1c.08-.34.21-.87.4-1.61s.41-1.54.65-2.44a1.49,1.49,0,0,0-.08-1.31,2.44,2.44,0,0,0-1-.64c-.42-.14-1-.36-1.79-.65L7.18,8.53Q6,8.11,5,7.72c-.66-.24-1.09-.4-1.29-.46a1.85,1.85,0,0,1-1.14-1A2.09,2.09,0,0,1,2.65,5C2.83,4.25,3,3.6,3.2,3S3.57,1.87,3.73,1.41Z"/></svg>