<svg id="Laag_1" data-name="Laag 1" xmlns="http://www.w3.org/2000/svg" viewBox="0 0 38 58.04"><defs><style>.cls-1{fill:#fff;fill-rule:evenodd;}</style></defs><title>SAND</title><path class="cls-1" d="M31,28a5.33,5.33,0,0,1,4.62-5.23l1.11-.13a126.58,126.58,0,0,1,26.54,0l1.11.13A5.33,5.33,0,0,1,69,28c0,9-2.76,13.13-9.25,17.82-3.06,2.28-3.88,3.31-3.88,5.23s.82,3,3.84,5.2C66.24,61,69,65.13,69,74a5.33,5.33,0,0,1-4.62,5.23h-.12a137.31,137.31,0,0,1-28.52,0h-.12A5.33,5.33,0,0,1,31,74c0-8.87,2.76-13,9.29-17.75l.17-.14c2.95-2.3,3.67-3.25,3.67-5.16s-.82-3-3.88-5.22C33.76,41,31,36.87,31,28Zm31,7a.8.8,0,0,1,.66,1.09,4.79,4.79,0,0,1-.27.66c-1.35,2.78-2.94,3.76-5.62,5.7-4.26,3.17-5.91,5.24-5.78,9.2,0,.43,0,0,0,0a1,1,0,0,1-1,1,1,1,0,0,1-1-1s0,.42,0,0c.13-4-1.52-6-5.78-9.2-2.68-1.94-4.27-2.92-5.62-5.7a4.79,4.79,0,0,1-.27-.66A.8.8,0,0,1,38,35l2.81-.43a72.71,72.71,0,0,1,18.41,0Z" transform="translate(-31 -21.94)"/></svg>