<svg xmlns="http://www.w3.org/2000/svg" viewBox="0 0 81.56 16.55"><defs><style>.a{fill:#fff;}</style></defs><title>Middel 7logo</title><path class="a" d="M0,8.62C0,4,3.52.7,8.25.7a7.82,7.82,0,0,1,6.1,2.58L12.5,5A5.42,5.42,0,0,0,8.38,3.21a5.26,5.26,0,0,0-5.5,5.41A5.26,5.26,0,0,0,8.38,14a5.37,5.37,0,0,0,4.12-1.83L14.35,14a7.84,7.84,0,0,1-6.12,2.58C3.52,16.55,0,13.22,0,8.62Z"/><path class="a" d="M23.89,15.69a4.31,4.31,0,0,1-2.64.79c-2.57,0-4-1.36-4-4V6.87H15.27V4.66h1.94V2H20V4.66H23.1V6.87H20v5.58c0,1.15.57,1.76,1.62,1.76a2.44,2.44,0,0,0,1.54-.48Z"/><path class="a" d="M33,4.44V7.06A3.91,3.91,0,0,0,32.32,7c-2.09,0-3.41,1.23-3.41,3.63v5.7H26.16V4.58h2.62V6.29C29.57,5.06,31,4.44,33,4.44Z"/><path class="a" d="M35.29,0H38V16.33H35.29Z"/><path class="a" d="M57.49,9.73h-3.9v3.85H51.24V9.73h-3.9V7.53h3.9V3.67h2.35V7.53h3.9Z"/><path class="a" d="M77,12.76h-7.7L67.8,16.33h-3L71.79.92H74.6l7,15.41h-3Zm-.94-2.24L73.17,3.78l-2.88,6.74Z"/></svg>